# xmcd
# 
# Track frame offsets:
#     150
#     36971
#     92613
#     118937
#     135988
#     183302
#     226644
#     246529
# 
# Disc length: 3899
# 
# Revision: 1
# Processed by: cddbd v1.5.2PL0 Copyright (c) Steve Scherf et al.
# Submitted via: BonkEnc v1.0.8
# 
DISCID=630f3908
DTITLE=Orrin Evans - Listen To The Band
DYEAR=1999
DGENRE=Contemporary Jazz
TTITLE0=I want to be happy
TTITLE1=In his place
TTITLE2=Mat-Matt
TTITLE3=There is a quiet place
TTITLE4=For Miles
TTITLE5=Dorm life
TTITLE6=Forgiven
TTITLE7=Diva black
EXTD=YEAR: 1999
EXTT0=
EXTT1=
EXTT2=
EXTT3=
EXTT4=
EXTT5=
EXTT6=
EXTT7=
PLAYORDER=
